<?xml version="1.0" encoding="UTF-8" standalone="no"?>
<svg
   xmlns:dc="http://purl.org/dc/elements/1.1/"
   xmlns:cc="http://creativecommons.org/ns#"
   xmlns:rdf="http://www.w3.org/1999/02/22-rdf-syntax-ns#"
   xmlns:svg="http://www.w3.org/2000/svg"
   xmlns="http://www.w3.org/2000/svg"
   xmlns:sodipodi="http://sodipodi.sourceforge.net/DTD/sodipodi-0.dtd"
   xmlns:inkscape="http://www.inkscape.org/namespaces/inkscape"
   viewBox="204.21 208.61 553.03171 335.75598"
   preserveAspectRatio="xMidYMid"
   width="553.03168"
   height="335.75598"
   version="1.1"
   id="svg166"
   sodipodi:docname="compounds.svg"
   inkscape:version="0.92.2 (5c3e80d, 2017-08-06)"
   inkscape:export-filename="C:\Users\rings\Documents\Work\thesis\written\main\figs\topo\compounds\compounds.png"
   inkscape:export-xdpi="100"
   inkscape:export-ydpi="100">
  <metadata
     id="metadata172">
    <rdf:RDF>
      <cc:Work
         rdf:about="">
        <dc:format>image/svg+xml</dc:format>
        <dc:type
           rdf:resource="http://purl.org/dc/dcmitype/StillImage" />
        <dc:title></dc:title>
      </cc:Work>
    </rdf:RDF>
  </metadata>
  <defs
     id="defs170" />
  <sodipodi:namedview
     pagecolor="#ffffff"
     bordercolor="#666666"
     borderopacity="1"
     objecttolerance="10"
     gridtolerance="10"
     guidetolerance="10"
     inkscape:pageopacity="0"
     inkscape:pageshadow="2"
     inkscape:window-width="1780"
     inkscape:window-height="1046"
     id="namedview168"
     showgrid="false"
     inkscape:zoom="0.78122513"
     inkscape:cx="5.2804894"
     inkscape:cy="-104.92885"
     inkscape:window-x="129"
     inkscape:window-y="-11"
     inkscape:window-maximized="1"
     inkscape:current-layer="svg166"
     inkscape:snap-global="false"
     fit-margin-top="0"
     fit-margin-left="0"
     fit-margin-right="0"
     fit-margin-bottom="0" />
  <clipPath
     id="264">
    <rect
       x="0.495"
       y="0.495"
       width="1079.01"
       height="1439.01"
       id="rect2" />
  </clipPath>
  <g
     id="drawing"
     transform="translate(19.525519,216.96553)">
    <g
       id="page"
       clip-path="url(#264)">
      <g
         id="g11">
        <text
           xml:space="preserve"
           id="text9"
           style="text-anchor:start;text-rendering:geometricPrecision"><tspan
             x="431.29001"
             y="283.39999"
             font-size="10"
             id="tspan7"
             style="font-size:10px;font-family:Arial;fill:#000000">N</tspan></text>
      </g>
      <g
         id="g17">
        <text
           xml:space="preserve"
           id="text15"
           style="text-anchor:start;text-rendering:geometricPrecision"><tspan
             x="431.29001"
             y="231.53"
             font-size="10"
             id="tspan13"
             style="font-size:10px;font-family:Arial;fill:#000000">N</tspan></text>
      </g>
      <g
         id="Solid">
        <path
           d="m 404.65,227.14 v 0 l 0.29,0.49 0.29,0.49 -14.7,25.45 h -0.57 l -0.29,-0.49 z"
           id="path19"
           inkscape:connector-curvature="0"
           style="fill:#000000;fill-rule:evenodd;stroke:#000000;stroke-width:0;stroke-linejoin:miter;shape-rendering:geometricPrecision" />
        <line
           x1="407.01999"
           y1="231.22"
           x2="394.10999"
           y2="253.57001"
           id="line21"
           style="stroke:#000000;stroke-width:0.99000001;shape-rendering:auto" />
      </g>
      <g
         id="g26">
        <path
           d="m 389.67,254.06 v 0 l 0.29,-0.49 h 0.57 l 14.7,25.43 -0.29,0.5 -0.29,0.5 z"
           id="path24"
           inkscape:connector-curvature="0"
           style="fill:#000000;fill-rule:evenodd;stroke:#000000;stroke-width:0;stroke-linejoin:miter;shape-rendering:geometricPrecision" />
      </g>
      <g
         id="g32">
        <path
           d="m 404.65,280 v 0 l 0.29,-0.5 0.29,-0.5 h 24.86 v 0.5 0.5 z"
           id="path28"
           inkscape:connector-curvature="0"
           style="fill:#000000;fill-rule:evenodd;stroke:#000000;stroke-width:0;stroke-linejoin:miter;shape-rendering:geometricPrecision" />
        <line
           x1="407.01001"
           y1="275.91"
           x2="430.09"
           y2="275.91"
           id="line30"
           style="stroke:#000000;stroke-width:0.99000001;shape-rendering:auto" />
      </g>
      <g
         id="g36">
        <path
           d="m 438.17,274.81 v 0 l -0.43,-0.25 -0.43,-0.25 11.98,-20.74 h 0.57 l 0.29,0.49 z"
           id="path34"
           inkscape:connector-curvature="0"
           style="fill:#000000;fill-rule:evenodd;stroke:#000000;stroke-width:0;stroke-linejoin:miter;shape-rendering:geometricPrecision" />
      </g>
      <g
         id="g42">
        <path
           d="m 450.15,253.08 v 0 l -0.29,0.49 h -0.57 l -11.53,-19.98 0.43,-0.25 0.42,-0.25 z"
           id="path38"
           inkscape:connector-curvature="0"
           style="fill:#000000;fill-rule:evenodd;stroke:#000000;stroke-width:0;stroke-linejoin:miter;shape-rendering:geometricPrecision" />
        <line
           x1="445.70999"
           y1="253.57001"
           x2="435.07001"
           y2="235.14"
           id="line40"
           style="stroke:#000000;stroke-width:0.99000001;shape-rendering:auto" />
      </g>
      <g
         id="g46">
        <path
           d="m 430.09,227.14 v 0 0.49 0.5 l -24.86,-0.01 -0.29,-0.49 -0.29,-0.49 z"
           id="path44"
           inkscape:connector-curvature="0"
           style="fill:#000000;fill-rule:evenodd;stroke:#000000;stroke-width:0;stroke-linejoin:miter;shape-rendering:geometricPrecision" />
      </g>
      <g
         id="g50">
        <path
           d="m 450.15,254.06 v 0 l -0.29,-0.49 0.29,-0.49 h 29.37 l 0.29,0.49 -0.29,0.49 z"
           id="path48"
           inkscape:connector-curvature="0"
           style="fill:#000000;fill-rule:evenodd;stroke:#000000;stroke-width:0;stroke-linejoin:miter;shape-rendering:geometricPrecision" />
      </g>
      <g
         id="g56">
        <path
           d="m 479.52,254.06 v 0 l 0.29,-0.49 h 0.57 l 14.7,25.45 -0.29,0.49 -0.29,0.49 z"
           id="path52"
           inkscape:connector-curvature="0"
           style="fill:#000000;fill-rule:evenodd;stroke:#000000;stroke-width:0;stroke-linejoin:miter;shape-rendering:geometricPrecision" />
        <line
           x1="483.95999"
           y1="253.57001"
           x2="496.87"
           y2="275.92001"
           id="line54"
           style="stroke:#000000;stroke-width:0.99000001;shape-rendering:auto" />
      </g>
      <g
         id="g60">
        <path
           d="m 494.5,280 v 0 l 0.29,-0.49 0.29,-0.49 h 29.37 l 0.29,0.49 0.29,0.49 z"
           id="path58"
           inkscape:connector-curvature="0"
           style="fill:#000000;fill-rule:evenodd;stroke:#000000;stroke-width:0;stroke-linejoin:miter;shape-rendering:geometricPrecision" />
      </g>
      <g
         id="g66">
        <path
           d="m 525.03,280 v 0 l -0.29,-0.49 -0.29,-0.49 14.69,-25.45 h 0.57 l 0.29,0.49 z"
           id="path62"
           inkscape:connector-curvature="0"
           style="fill:#000000;fill-rule:evenodd;stroke:#000000;stroke-width:0;stroke-linejoin:miter;shape-rendering:geometricPrecision" />
        <line
           x1="522.65997"
           y1="275.92001"
           x2="535.56"
           y2="253.57001"
           id="line64"
           style="stroke:#000000;stroke-width:0.99000001;shape-rendering:auto" />
      </g>
      <g
         id="g70">
        <path
           d="m 540,253.08 v 0 l -0.29,0.49 h -0.57 l -14.69,-25.45 0.29,-0.49 0.29,-0.49 z"
           id="path68"
           inkscape:connector-curvature="0"
           style="fill:#000000;fill-rule:evenodd;stroke:#000000;stroke-width:0;stroke-linejoin:miter;shape-rendering:geometricPrecision" />
      </g>
      <g
         id="g76">
        <path
           d="m 525.03,227.14 v 0 l -0.29,0.49 -0.29,0.49 h -29.37 l -0.29,-0.49 -0.29,-0.49 z"
           id="path72"
           inkscape:connector-curvature="0"
           style="fill:#000000;fill-rule:evenodd;stroke:#000000;stroke-width:0;stroke-linejoin:miter;shape-rendering:geometricPrecision" />
        <line
           x1="522.65997"
           y1="231.22"
           x2="496.85999"
           y2="231.22"
           id="line74"
           style="stroke:#000000;stroke-width:0.99000001;shape-rendering:auto" />
      </g>
      <g
         id="g80">
        <path
           d="m 494.5,227.14 v 0 l 0.29,0.49 0.29,0.49 -14.7,25.45 h -0.57 l -0.29,-0.49 z"
           id="path78"
           inkscape:connector-curvature="0"
           style="fill:#000000;fill-rule:evenodd;stroke:#000000;stroke-width:0;stroke-linejoin:miter;shape-rendering:geometricPrecision" />
      </g>
      <g
         id="g86">
        <text
           xml:space="preserve"
           id="text84"
           style="text-anchor:start;text-rendering:geometricPrecision"><tspan
             x="565.76001"
             y="257.47"
             font-size="10"
             id="tspan82"
             style="font-size:10px;font-family:Arial;fill:#000000">O</tspan></text>
      </g>
      <g
         id="g90">
        <path
           d="m 540,254.06 v 0 l -0.29,-0.49 0.29,-0.49 24.29,-0.01 v 0.5 0.49 z"
           id="path88"
           inkscape:connector-curvature="0"
           style="fill:#000000;fill-rule:evenodd;stroke:#000000;stroke-width:0;stroke-linejoin:miter;shape-rendering:geometricPrecision" />
      </g>
      <g
         id="g94">
        <path
           d="m 389.67,253.08 v 0 l 0.29,0.49 -0.29,0.49 h -29.52 l -0.14,-0.49 -0.14,-0.49 z"
           id="path92"
           inkscape:connector-curvature="0"
           style="fill:#000000;fill-rule:evenodd;stroke:#000000;stroke-width:0;stroke-linejoin:miter;shape-rendering:geometricPrecision" />
      </g>
      <g
         id="g98">
        <path
           d="m 359.87,253.08 v 0 l 0.14,0.49 0.14,0.49 -25.74,15.6 -0.01,-0.58 -0.01,-0.58 z"
           id="path96"
           inkscape:connector-curvature="0"
           style="fill:#000000;fill-rule:evenodd;stroke:#000000;stroke-width:0;stroke-linejoin:miter;shape-rendering:geometricPrecision" />
      </g>
      <g
         id="g102">
        <path
           d="m 334.39,268.5 v 0 l 0.01,0.58 0.01,0.58 -25.95,-14.98 v -0.57 -0.57 z"
           id="path100"
           inkscape:connector-curvature="0"
           style="fill:#000000;fill-rule:evenodd;stroke:#000000;stroke-width:0;stroke-linejoin:miter;shape-rendering:geometricPrecision" />
      </g>
      <g
         id="g106">
        <path
           d="m 204.21,254.4 v 0 l 0.5,-0.29 0.5,-0.29 25.69,14.83 -0.25,0.43 -0.25,0.43 z"
           id="path104"
           inkscape:connector-curvature="0"
           style="fill:#000000;fill-rule:evenodd;stroke:#000000;stroke-width:0;stroke-linejoin:miter;shape-rendering:geometricPrecision" />
      </g>
      <g
         id="g110">
        <path
           d="m 308.46,253.54 v 0 0.57 0.57 l -25.94,14.97 v -0.57 -0.57 z"
           id="path108"
           inkscape:connector-curvature="0"
           style="fill:#000000;fill-rule:evenodd;stroke:#000000;stroke-width:0;stroke-linejoin:miter;shape-rendering:geometricPrecision" />
      </g>
      <g
         id="g114">
        <path
           d="m 204.21,223.87 v 0 l 0.5,0.29 0.5,0.29 v 29.37 l -0.5,0.29 -0.5,0.29 z"
           id="path112"
           inkscape:connector-curvature="0"
           style="fill:#000000;fill-rule:evenodd;stroke:#000000;stroke-width:0;stroke-linejoin:miter;shape-rendering:geometricPrecision" />
      </g>
      <g
         id="g118">
        <path
           d="m 230.65,208.61 v 0 0.57 0.57 l -25.44,14.7 -0.5,-0.29 -0.5,-0.29 z"
           id="path116"
           inkscape:connector-curvature="0"
           style="fill:#000000;fill-rule:evenodd;stroke:#000000;stroke-width:0;stroke-linejoin:miter;shape-rendering:geometricPrecision" />
      </g>
      <g
         id="g122">
        <path
           d="m 257.07,223.87 v 0 l -0.49,0.29 -0.49,0.29 -25.44,-14.7 v -0.57 -0.57 z"
           id="path120"
           inkscape:connector-curvature="0"
           style="fill:#000000;fill-rule:evenodd;stroke:#000000;stroke-width:0;stroke-linejoin:miter;shape-rendering:geometricPrecision" />
      </g>
      <g
         id="g126">
        <path
           d="m 257.08,253.82 v 0 l -0.5,0.29 -0.5,0.29 0.01,-29.95 0.49,-0.29 0.49,-0.29 z"
           id="path124"
           inkscape:connector-curvature="0"
           style="fill:#000000;fill-rule:evenodd;stroke:#000000;stroke-width:0;stroke-linejoin:miter;shape-rendering:geometricPrecision" />
      </g>
      <g
         id="g130">
        <path
           d="m 282.52,268.51 v 0 0.57 0.57 l -26.44,-15.25 0.5,-0.29 0.5,-0.29 z"
           id="path128"
           inkscape:connector-curvature="0"
           style="fill:#000000;fill-rule:evenodd;stroke:#000000;stroke-width:0;stroke-linejoin:miter;shape-rendering:geometricPrecision" />
      </g>
      <g
         id="g134">
        <path
           d="m 574.78,251.1 v 0 l -0.25,-0.43 -0.26,-0.42 21.12,-12.57 0.01,0.57 0.01,0.57 z"
           id="path132"
           inkscape:connector-curvature="0"
           style="fill:#000000;fill-rule:evenodd;stroke:#000000;stroke-width:0;stroke-linejoin:miter;shape-rendering:geometricPrecision" />
      </g>
      <g
         id="g138">
        <path
           d="m 595.41,238.82 v 0 l -0.01,-0.57 -0.01,-0.57 26.13,14.62 0.01,0.57 0.01,0.57 z"
           id="path136"
           inkscape:connector-curvature="0"
           style="fill:#000000;fill-rule:evenodd;stroke:#000000;stroke-width:0;stroke-linejoin:miter;shape-rendering:geometricPrecision" />
      </g>
      <g
         id="g142">
        <path
           d="m 621.54,253.44 v 0 l -0.01,-0.57 -0.01,-0.57 25.74,-15.32 0.01,0.57 0.01,0.57 z"
           id="path140"
           inkscape:connector-curvature="0"
           style="fill:#000000;fill-rule:evenodd;stroke:#000000;stroke-width:0;stroke-linejoin:miter;shape-rendering:geometricPrecision" />
      </g>
      <g
         id="g146">
        <path
           d="m 647.28,238.12 v 0 l -0.01,-0.57 -0.01,-0.57 26.13,14.62 0.01,0.57 0.01,0.57 z"
           id="path144"
           inkscape:connector-curvature="0"
           style="fill:#000000;fill-rule:evenodd;stroke:#000000;stroke-width:0;stroke-linejoin:miter;shape-rendering:geometricPrecision" />
      </g>
      <g
         id="g150">
        <path
           d="m 673.41,252.74 v 0 l -0.01,-0.57 -0.01,-0.57 25.74,-15.32 0.01,0.57 0.01,0.57 z"
           id="path148"
           inkscape:connector-curvature="0"
           style="fill:#000000;fill-rule:evenodd;stroke:#000000;stroke-width:0;stroke-linejoin:miter;shape-rendering:geometricPrecision" />
      </g>
      <g
         id="g154">
        <path
           d="m 699.15,237.42 v 0 l -0.01,-0.57 -0.01,-0.57 26.63,14.91 -0.49,0.29 -0.49,0.29 z"
           id="path152"
           inkscape:connector-curvature="0"
           style="fill:#000000;fill-rule:evenodd;stroke:#000000;stroke-width:0;stroke-linejoin:miter;shape-rendering:geometricPrecision" />
      </g>
      <g
         id="g158">
        <path
           d="m 724.78,251.77 v 0 l 0.49,-0.29 0.49,-0.29 0.42,30.51 -0.5,-0.28 -0.5,-0.28 z"
           id="path156"
           inkscape:connector-curvature="0"
           style="fill:#000000;fill-rule:evenodd;stroke:#000000;stroke-width:0;stroke-linejoin:miter;shape-rendering:geometricPrecision" />
      </g>
      <g
         id="g162">
        <path
           d="m 725.18,281.14 v 0 l 0.5,0.28 0.5,0.28 -25.99,15.48 -0.25,-0.43 -0.25,-0.43 z"
           id="path160"
           inkscape:connector-curvature="0"
           style="fill:#000000;fill-rule:evenodd;stroke:#000000;stroke-width:0;stroke-linejoin:miter;shape-rendering:geometricPrecision" />
      </g>
    </g>
  </g>
  <g
     id="drawing-9"
     transform="translate(212.75173,169.12)">
    <g
       clip-path="url(#209)"
       id="page-8">
      <g
         id="g988">
        <text
           id="text986"
           xml:space="preserve"
           style="text-anchor:start;text-rendering:geometricPrecision"><tspan
             id="tspan984"
             font-size="10"
             y="173.33"
             x="243.98"
             style="font-size:10px;font-family:Arial;fill:#000000">N</tspan></text>
      </g>
      <g
         id="g994">
        <text
           id="text992"
           xml:space="preserve"
           style="text-anchor:start;text-rendering:geometricPrecision"><tspan
             id="tspan990"
             font-size="10"
             y="121.46"
             x="243.98"
             style="font-size:10px;font-family:Arial;fill:#000000">N</tspan></text>
      </g>
      <g
         id="Solid-2">
        <path
           id="path996"
           d="m 217.34,117.06 v 0 l 0.29,0.5 0.29,0.5 -14.7,25.43 h -0.57 L 202.36,143 Z"
           inkscape:connector-curvature="0"
           style="fill:#000000;fill-rule:evenodd;stroke:#000000;stroke-width:0;stroke-linejoin:miter;shape-rendering:geometricPrecision" />
        <line
           id="line998"
           y2="143.49001"
           x2="206.8"
           y1="121.15"
           x1="219.7"
           style="stroke:#000000;stroke-width:0.99000001;shape-rendering:auto" />
      </g>
      <g
         id="g1003">
        <path
           id="path1001"
           d="m 202.36,143.98 v 0 l 0.29,-0.49 h 0.57 l 14.7,25.45 -0.29,0.49 -0.29,0.49 z"
           inkscape:connector-curvature="0"
           style="fill:#000000;fill-rule:evenodd;stroke:#000000;stroke-width:0;stroke-linejoin:miter;shape-rendering:geometricPrecision" />
      </g>
      <g
         id="g1009">
        <path
           id="path1005"
           d="m 217.34,169.92 v 0 l 0.29,-0.49 0.29,-0.49 h 24.87 v 0.49 0.5 z"
           inkscape:connector-curvature="0"
           style="fill:#000000;fill-rule:evenodd;stroke:#000000;stroke-width:0;stroke-linejoin:miter;shape-rendering:geometricPrecision" />
        <line
           id="line1007"
           y2="165.84"
           x2="242.78999"
           y1="165.84"
           x1="219.7"
           style="stroke:#000000;stroke-width:0.99000001;shape-rendering:auto" />
      </g>
      <g
         id="g1013">
        <path
           id="path1011"
           d="m 250.88,164.71 v 0 l -0.43,-0.25 -0.43,-0.25 11.96,-20.72 h 0.57 l 0.29,0.49 z"
           inkscape:connector-curvature="0"
           style="fill:#000000;fill-rule:evenodd;stroke:#000000;stroke-width:0;stroke-linejoin:miter;shape-rendering:geometricPrecision" />
      </g>
      <g
         id="g1019">
        <path
           id="path1015"
           d="m 262.84,143 v 0 l -0.29,0.49 h -0.57 l -11.55,-20 0.43,-0.25 0.43,-0.25 z"
           inkscape:connector-curvature="0"
           style="fill:#000000;fill-rule:evenodd;stroke:#000000;stroke-width:0;stroke-linejoin:miter;shape-rendering:geometricPrecision" />
        <line
           id="line1017"
           y2="125.04"
           x2="247.75"
           y1="143.49001"
           x1="258.39999"
           style="stroke:#000000;stroke-width:0.99000001;shape-rendering:auto" />
      </g>
      <g
         id="g1023">
        <path
           id="path1021"
           d="m 242.79,117.06 v 0 0.5 0.49 l -24.87,0.01 -0.29,-0.5 -0.29,-0.5 z"
           inkscape:connector-curvature="0"
           style="fill:#000000;fill-rule:evenodd;stroke:#000000;stroke-width:0;stroke-linejoin:miter;shape-rendering:geometricPrecision" />
      </g>
      <g
         id="g1027">
        <path
           id="path1025"
           d="m 262.84,143.98 v 0 l -0.29,-0.49 0.29,-0.49 h 29.37 l 0.29,0.49 -0.29,0.49 z"
           inkscape:connector-curvature="0"
           style="fill:#000000;fill-rule:evenodd;stroke:#000000;stroke-width:0;stroke-linejoin:miter;shape-rendering:geometricPrecision" />
      </g>
      <g
         id="g1033">
        <path
           id="path1029"
           d="m 292.21,143.98 v 0 l 0.29,-0.49 h 0.57 l 14.7,25.45 -0.29,0.49 -0.29,0.49 z"
           inkscape:connector-curvature="0"
           style="fill:#000000;fill-rule:evenodd;stroke:#000000;stroke-width:0;stroke-linejoin:miter;shape-rendering:geometricPrecision" />
        <line
           id="line1031"
           y2="165.84"
           x2="309.56"
           y1="143.49001"
           x1="296.64999"
           style="stroke:#000000;stroke-width:0.99000001;shape-rendering:auto" />
      </g>
      <g
         id="g1037">
        <path
           id="path1035"
           d="m 307.19,169.92 v 0 l 0.29,-0.49 0.29,-0.49 h 29.37 l 0.29,0.49 0.29,0.49 z"
           inkscape:connector-curvature="0"
           style="fill:#000000;fill-rule:evenodd;stroke:#000000;stroke-width:0;stroke-linejoin:miter;shape-rendering:geometricPrecision" />
      </g>
      <g
         id="g1043">
        <path
           id="path1039"
           d="m 337.72,169.92 v 0 l -0.29,-0.49 -0.29,-0.49 14.69,-25.45 h 0.57 l 0.29,0.49 z"
           inkscape:connector-curvature="0"
           style="fill:#000000;fill-rule:evenodd;stroke:#000000;stroke-width:0;stroke-linejoin:miter;shape-rendering:geometricPrecision" />
        <line
           id="line1041"
           y2="143.49001"
           x2="348.25"
           y1="165.84"
           x1="335.35001"
           style="stroke:#000000;stroke-width:0.99000001;shape-rendering:auto" />
      </g>
      <g
         id="g1047">
        <path
           id="path1045"
           d="m 352.69,143 v 0 l -0.29,0.49 h -0.57 l -14.69,-25.43 0.29,-0.5 0.29,-0.5 z"
           inkscape:connector-curvature="0"
           style="fill:#000000;fill-rule:evenodd;stroke:#000000;stroke-width:0;stroke-linejoin:miter;shape-rendering:geometricPrecision" />
      </g>
      <g
         id="g1053">
        <path
           id="path1049"
           d="m 337.72,117.06 v 0 l -0.29,0.5 -0.29,0.5 h -29.37 l -0.29,-0.5 -0.29,-0.5 z"
           inkscape:connector-curvature="0"
           style="fill:#000000;fill-rule:evenodd;stroke:#000000;stroke-width:0;stroke-linejoin:miter;shape-rendering:geometricPrecision" />
        <line
           id="line1051"
           y2="121.15"
           x2="309.54999"
           y1="121.15"
           x1="335.35001"
           style="stroke:#000000;stroke-width:0.99000001;shape-rendering:auto" />
      </g>
      <g
         id="g1057">
        <path
           id="path1055"
           d="m 307.19,117.06 v 0 l 0.29,0.5 0.29,0.5 -14.7,25.43 H 292.5 L 292.21,143 Z"
           inkscape:connector-curvature="0"
           style="fill:#000000;fill-rule:evenodd;stroke:#000000;stroke-width:0;stroke-linejoin:miter;shape-rendering:geometricPrecision" />
      </g>
      <g
         id="g1063">
        <text
           id="text1061"
           xml:space="preserve"
           style="text-anchor:start;text-rendering:geometricPrecision"><tspan
             id="tspan1059"
             font-size="10"
             y="147.39"
             x="378.45001"
             style="font-size:10px;font-family:Arial;fill:#000000">O</tspan></text>
      </g>
      <g
         id="g1067">
        <path
           id="path1065"
           d="m 352.69,143.98 v 0 l -0.29,-0.49 0.29,-0.49 h 24.3 v 0.49 0.5 z"
           inkscape:connector-curvature="0"
           style="fill:#000000;fill-rule:evenodd;stroke:#000000;stroke-width:0;stroke-linejoin:miter;shape-rendering:geometricPrecision" />
      </g>
      <g
         id="g1071">
        <path
           id="path1069"
           d="m 387.24372,143.43 v 0 l 0.24497,0.43289 0.24496,0.43289 20.31412,-11.57821 -0.003,-0.56938 -0.003,-0.56938 z"
           inkscape:connector-curvature="0"
           style="fill:#000000;fill-rule:evenodd;stroke:#000000;stroke-width:0;stroke-linejoin:miter;shape-rendering:geometricPrecision"
           inkscape:transform-center-x="-9.6734951"
           inkscape:transform-center-y="-5.7994901" />
      </g>
      <g
         id="g1075">
        <path
           id="path1073"
           d="m 408.04187,131.57881 v 0 l 0.003,0.56938 0.003,0.56938 25.85303,15.1203 -0.003,-0.56938 -0.003,-0.56938 z"
           inkscape:connector-curvature="0"
           style="fill:#000000;fill-rule:evenodd;stroke:#000000;stroke-width:0;stroke-linejoin:miter;shape-rendering:geometricPrecision"
           inkscape:transform-center-x="-32.999135"
           inkscape:transform-center-y="-4.0284452" />
      </g>
      <g
         id="g1079">
        <path
           id="path1077"
           d="m 433.8949,146.69911 v 0 l 0.003,0.56938 0.003,0.56938 26.01805,-14.83394 -0.003,-0.56938 -0.003,-0.56938 z"
           inkscape:connector-curvature="0"
           style="fill:#000000;fill-rule:evenodd;stroke:#000000;stroke-width:0;stroke-linejoin:miter;shape-rendering:geometricPrecision"
           inkscape:transform-center-x="-58.934675"
           inkscape:transform-center-y="-3.8852652" />
      </g>
      <g
         id="g1083">
        <path
           id="path1081"
           d="m 459.91294,131.86517 v 0 l 0.003,0.56938 0.003,0.56938 25.85302,15.1203 -0.003,-0.56938 -0.003,-0.56938 z"
           inkscape:connector-curvature="0"
           style="fill:#000000;fill-rule:evenodd;stroke:#000000;stroke-width:0;stroke-linejoin:miter;shape-rendering:geometricPrecision"
           inkscape:transform-center-x="-84.8702"
           inkscape:transform-center-y="-3.7420852" />
      </g>
      <g
         id="g1087">
        <path
           id="path1085"
           d="m 485.76597,146.98547 v 0 l 0.003,0.56938 0.003,0.56938 26.02668,-14.8289 -0.003,-0.56937 -0.003,-0.56938 z"
           inkscape:connector-curvature="0"
           style="fill:#000000;fill-rule:evenodd;stroke:#000000;stroke-width:0;stroke-linejoin:miter;shape-rendering:geometricPrecision"
           inkscape:transform-center-x="-110.81006"
           inkscape:transform-center-y="-3.5963802" />
      </g>
      <g
         id="g1091">
        <path
           id="path1089"
           d="m 511.79264,132.15658 v 0 l 0.003,0.56938 0.003,0.56937 25.6027,14.9739 0.24737,-0.42297 0.24738,-0.42297 z"
           inkscape:connector-curvature="0"
           style="fill:#000000;fill-rule:evenodd;stroke:#000000;stroke-width:0;stroke-linejoin:miter;shape-rendering:geometricPrecision"
           inkscape:transform-center-x="-136.87212"
           inkscape:transform-center-y="-3.5238802" />
      </g>
      <g
         id="g1095">
        <path
           id="path1093"
           d="m 202.36,143 v 0 l 0.29,0.49 -0.29,0.49 h -29.95 l 0.29,-0.49 0.29,-0.49 z"
           inkscape:connector-curvature="0"
           style="fill:#000000;fill-rule:evenodd;stroke:#000000;stroke-width:0;stroke-linejoin:miter;shape-rendering:geometricPrecision" />
      </g>
      <g
         id="g1099">
        <path
           id="path1097"
           d="m 173.07465,143.32425 v 0 l -0.0136,0.56923 -0.0136,0.56922 -25.7255,-15.30182 0.009,-0.57795 0.009,-0.57795 z"
           inkscape:connector-curvature="0"
           style="fill:#000000;fill-rule:evenodd;stroke:#000000;stroke-width:0;stroke-linejoin:miter;shape-rendering:geometricPrecision"
           inkscape:transform-center-x="13.455399"
           inkscape:transform-center-y="-6.766071" />
      </g>
      <g
         id="g1103">
        <path
           id="path1101"
           d="m 147.33937,128.33949 v 0 l -0.009,0.57795 -0.009,0.57795 -26.13205,14.6328 0.009,-0.57795 0.009,-0.57795 z"
           inkscape:connector-curvature="0"
           style="fill:#000000;fill-rule:evenodd;stroke:#000000;stroke-width:0;stroke-linejoin:miter;shape-rendering:geometricPrecision"
           inkscape:transform-center-x="39.389354"
           inkscape:transform-center-y="-7.100581" />
      </g>
      <g
         id="g1107">
        <path
           id="path1105"
           d="m 121.20733,143.31308 v 0 l -0.009,0.57795 -0.009,0.57795 -25.743999,-15.31438 0.0087,-0.57795 0.0087,-0.57795 z"
           inkscape:connector-curvature="0"
           style="fill:#000000;fill-rule:evenodd;stroke:#000000;stroke-width:0;stroke-linejoin:miter;shape-rendering:geometricPrecision"
           inkscape:transform-center-x="65.327368"
           inkscape:transform-center-y="-7.441371" />
      </g>
      <g
         id="g1111">
        <path
           id="path1109"
           d="m 95.46333,128.33949 v 0 l -0.0087,0.57795 -0.0087,0.57795 -26.132042,14.6328 0.0087,-0.57795 0.0087,-0.57795 z"
           inkscape:connector-curvature="0"
           style="fill:#000000;fill-rule:evenodd;stroke:#000000;stroke-width:0;stroke-linejoin:miter;shape-rendering:geometricPrecision"
           inkscape:transform-center-x="91.26509"
           inkscape:transform-center-y="-7.782161" />
      </g>
      <g
         id="g1115">
        <path
           id="path1113"
           d="m 69.331288,143.31552 v 0 l -0.0087,0.57795 -0.0087,0.57795 -25.735276,-15.31927 0.0087,-0.57795 0.0087,-0.57795 z"
           inkscape:connector-curvature="0"
           style="fill:#000000;fill-rule:evenodd;stroke:#000000;stroke-width:0;stroke-linejoin:miter;shape-rendering:geometricPrecision" />
      </g>
      <g
         id="g1119">
        <path
           id="path1117"
           d="m 43.596011,128.33949 v 0 l -0.0087,0.57795 -0.0087,0.57795 -26.132043,14.6328 0.0087,-0.57795 0.0087,-0.57795 z"
           inkscape:connector-curvature="0"
           style="fill:#000000;fill-rule:evenodd;stroke:#000000;stroke-width:0;stroke-linejoin:miter;shape-rendering:geometricPrecision"
           inkscape:transform-center-x="143.13241"
           inkscape:transform-center-y="-8.4686305" />
      </g>
      <g
         id="g1123">
        <path
           id="path1121"
           d="m 17.463969,143.23821 v 0 l -0.0087,0.57795 -0.0087,0.57795 -25.9882981,-15.46412 0.253041,-0.42822 0.253041,-0.42821 z"
           inkscape:connector-curvature="0"
           style="fill:#000000;fill-rule:evenodd;stroke:#000000;stroke-width:0;stroke-linejoin:miter;shape-rendering:geometricPrecision"
           inkscape:transform-center-x="169.19258"
           inkscape:transform-center-y="-8.7345555" />
      </g>
    </g>
  </g>
  <text
     xml:space="preserve"
     style="font-style:normal;font-variant:normal;font-weight:normal;font-stretch:normal;font-size:21.33333397px;line-height:0;font-family:Arial;-inkscape-font-specification:Arial;letter-spacing:0px;word-spacing:0px;fill:#000000;fill-opacity:1;stroke:none"
     x="444.99182"
     y="377.66104"
     id="text1211"><tspan
       sodipodi:role="line"
       id="tspan1209"
       x="444.99182"
       y="377.66104">ST00552</tspan></text>
  <text
     id="text1215"
     y="544.10553"
     x="448.98648"
     style="font-style:normal;font-variant:normal;font-weight:normal;font-stretch:normal;font-size:21.33333397px;line-height:0;font-family:Arial;-inkscape-font-specification:Arial;letter-spacing:0px;word-spacing:0px;fill:#000000;fill-opacity:1;stroke:none"
     xml:space="preserve"><tspan
       y="544.10553"
       x="448.98648"
       id="tspan1213"
       sodipodi:role="line">ST00557</tspan></text>
</svg>
